PathFileType	4	(X/Y/Z)	G:\マイドライブ\biomec\experimentalData\240725\CJ1.trc
DataRate	CameraRate	NumFrames	NumMarkers	Units	OrigDataRate	OrigDataStartFrame	OrigNumFrames
200.00	200.00	      6	52	mm	200.00	594	      1582
Frame#	Time	handR			wrRI			wrRO			elbRI			elbRO			shRF			shRU			shRB			handL			wrLI			wrLO			elbLI			elbLO			shLF			shLU			shLB			toeR			baRI			baRO			heelR			anRI			anRO			knRI			knRO			troR			toeL			baLI			baLO			heelL			anLI			anLO			knLI			knLO			troL			head			earR			earL			clav			c7			ribR			ribL			xiph			ASISR			ASISL			PSISR			PSISL			t8			t11			L1			L3			LS			COX			
		X1	Y1	Z1	X2	Y2	Z2	X3	Y3	Z3	X4	Y4	Z4	X5	Y5	Z5	X6	Y6	Z6	X7	Y7	Z7	X8	Y8	Z8	X9	Y9	Z9	X10	Y10	Z10	X11	Y11	Z11	X12	Y12	Z12	X13	Y13	Z13	X14	Y14	Z14	X15	Y15	Z15	X16	Y16	Z16	X17	Y17	Z17	X18	Y18	Z18	X19	Y19	Z19	X20	Y20	Z20	X21	Y21	Z21	X22	Y22	Z22	X23	Y23	Z23	X24	Y24	Z24	X25	Y25	Z25	X26	Y26	Z26	X27	Y27	Z27	X28	Y28	Z28	X29	Y29	Z29	X30	Y30	Z30	X31	Y31	Z31	X32	Y32	Z32	X33	Y33	Z33	X34	Y34	Z34	X35	Y35	Z35	X36	Y36	Z36	X37	Y37	Z37	X38	Y38	Z38	X39	Y39	Z39	X40	Y40	Z40	X41	Y41	Z41	X42	Y42	Z42	X43	Y43	Z43	X44	Y44	Z44	X45	Y45	Z45	X46	Y46	Z46	X47	Y47	Z47	X48	Y48	Z48	X49	Y49	Z49	X50	Y50	Z50	X51	Y51	Z51	X52	Y52	Z52	

594	2.965	549.13141	768.82562	1054.53040	509.40643	706.84467	1025.42944	466.26718	751.49017	1063.88196	353.70862	611.50659	1193.02332	415.90829	561.73853	1205.88062	540.72528	757.00372	1415.76855	431.86548	738.76965	1411.78394	485.33133	730.92633	1446.41101	584.55127	1054.29773	1053.91895	551.53021	1120.78796	1020.57245	509.73318	1081.46191	1069.41016	427.46466	1252.58691	1177.21997	500.81168	1290.84839	1184.45471	569.44116	1079.03662	1404.40698	520.40942	1118.32495	1431.70386	458.94119	1107.77478	1386.49805	690.48779	734.41547	57.34740	610.97595	784.46661	36.98569	583.88177	664.58905	44.25018	405.87302	758.84595	38.51497	492.59952	793.65222	109.20556	473.36493	698.49152	104.13438	527.15497	830.37006	470.79099	543.61163	728.97797	479.16516	518.43085	739.13794	877.50281	712.31372	1054.15222	59.21544	637.36584	1010.09802	54.00373	619.54041	1122.86853	48.05359	428.69955	1071.18640	36.36081	511.95923	1022.45282	127.75716	497.85623	1114.04187	103.33385	495.96799	1001.02289	472.61658	529.31012	1103.95386	485.05267	543.10516	1081.41833	866.62280	544.48615	935.88068	1713.33752	590.88062	843.69189	1554.88928	603.06464	1002.13770	1546.62061	581.37695	918.52008	1399.94226	460.28754	936.46997	1477.35217	559.35016	808.46094	1100.14417	586.55792	1020.26239	1095.31653	612.15320	911.42560	1243.92004	581.14313	804.74054	970.04242	594.68475	1022.86993	976.03241	412.21008	866.99921	998.03320	425.76205	987.27386	999.99896	395.21930	937.37372	1259.72522	411.82327	933.21844	1133.70679	423.51837	932.87189	1075.61084	421.07651	928.08356	1029.57068	408.84274	929.39557	991.42999	384.80466	928.59326	887.00403	
595	2.970	549.67206	768.34039	1054.61682	510.08548	706.50354	1025.53491	467.01779	750.76318	1063.73132	354.74545	610.80737	1192.86206	416.66916	561.21942	1205.90442	540.59827	756.65613	1416.12390	431.82925	738.48407	1411.79138	485.14343	730.65198	1446.61328	584.87207	1054.00525	1053.82959	551.88043	1120.29480	1020.50171	510.04822	1081.03040	1069.39294	427.78308	1252.23254	1177.16821	501.11929	1290.43420	1184.40210	569.44116	1078.71948	1404.63745	520.33124	1118.02161	1431.86609	458.96109	1107.49414	1386.45923	690.48206	734.43036	57.44413	610.95068	784.44543	37.01931	583.84918	664.61237	44.28879	405.83493	758.82916	38.50985	492.49420	793.61859	109.15540	473.35962	698.39917	104.06510	526.45105	830.13861	471.00208	543.44482	728.78192	479.16513	519.21893	738.70105	877.52454	712.34094	1054.12756	59.13081	637.35376	1010.03436	53.90919	619.54846	1122.84912	48.04245	428.72235	1071.17432	36.40902	512.00348	1022.38336	127.75849	497.86884	1113.96106	103.39165	496.11261	1000.73615	472.72128	529.53778	1103.67627	485.11835	543.32037	1080.96936	866.61182	543.12134	935.77588	1713.43774	590.31317	843.39453	1555.32446	602.67993	1001.78705	1546.96692	581.44775	918.19342	1400.33765	460.04318	936.25879	1477.31128	559.83173	808.01593	1100.39990	587.02118	1019.83063	1095.55627	612.51361	911.07556	1244.42468	581.67157	804.53149	970.09436	595.09631	1022.33508	976.42358	412.65121	866.43481	998.09650	426.10806	986.77704	999.97845	395.38733	936.87097	1259.56665	411.52298	933.12500	1133.68286	423.97150	932.43451	1075.56213	421.41763	927.58820	1029.59033	409.09171	928.87604	991.49664	385.28055	927.73743	886.97943	
596	2.975	550.11987	767.88068	1054.62939	510.93546	705.99609	1025.49792	467.55493	750.27423	1063.74170	355.50708	610.20581	1192.79504	417.57593	560.69165	1205.97314	540.50018	756.25549	1416.45728	431.81525	738.20184	1411.79871	484.98782	730.36157	1446.78174	584.38391	1053.63037	1053.70813	552.09601	1119.92285	1020.43420	510.94147	1080.62683	1068.94995	428.13028	1251.82935	1177.11743	501.36771	1290.09045	1184.39941	569.46265	1078.45398	1404.82104	520.28009	1117.71106	1432.00183	458.98672	1107.20605	1386.39868	690.46326	734.44122	57.52783	610.93005	784.43445	37.07998	583.82678	664.62854	44.31950	405.82690	758.81384	38.48602	492.42529	793.57574	109.14653	473.36578	698.29407	103.95746	525.77429	829.66040	471.03586	543.24988	728.57904	479.15115	519.96509	738.23364	877.64697	712.35773	1054.11523	59.03004	637.39972	1010.00378	53.83785	619.59387	1122.83276	48.03864	428.71616	1071.17102	36.45162	512.04541	1022.33838	127.76404	497.90530	1113.88171	103.43324	496.36798	1000.44012	472.80426	529.68768	1103.48169	485.19632	543.54138	1080.53442	866.65485	541.77423	935.49994	1713.53259	589.85815	843.28003	1555.50696	602.25043	1001.43726	1547.35571	581.55359	917.96906	1400.79883	459.74106	935.92401	1477.25952	560.38403	807.51880	1100.68616	587.42975	1019.45154	1095.78369	612.81421	910.70013	1244.83862	582.27771	804.33594	970.18524	595.39557	1021.83539	976.50580	413.15036	865.83148	998.15515	426.37057	986.13672	999.94238	395.58408	936.42542	1259.41638	412.50708	932.27484	1133.52966	424.44958	931.97247	1075.47595	421.90076	926.97937	1029.61792	409.48706	928.26575	991.49615	385.59244	926.94855	887.03235	
597	2.980	550.62354	767.49481	1054.69104	511.71906	705.65393	1025.53857	467.96472	749.84729	1063.76978	356.08871	609.61292	1192.76575	418.45438	560.16827	1205.98730	540.46057	755.79285	1416.82263	431.84009	737.86041	1411.82227	484.85040	730.10199	1446.95325	585.55945	1053.39246	1053.70374	552.30359	1119.62244	1020.38312	510.53735	1080.36523	1069.25085	428.51202	1251.35693	1177.08423	501.68076	1289.71973	1184.40039	570.46912	1077.42493	1404.42346	520.27905	1117.35242	1432.12549	459.01733	1106.93250	1386.39697	690.46808	734.43304	57.63300	610.90143	784.43439	37.12115	583.81897	664.63019	44.34857	405.83051	758.79694	38.45599	492.31116	793.49866	109.13400	473.38538	698.20477	103.88313	525.23218	829.16901	470.97772	542.96741	728.28497	479.14081	520.63440	737.83990	877.74481	712.37793	1054.09839	58.90958	637.40985	1009.93506	53.72958	619.60602	1122.79956	48.02545	428.74094	1071.14417	36.46066	512.09723	1022.25696	127.76463	497.96631	1113.79382	103.45116	496.74609	1000.09271	472.88168	529.52710	1104.59753	485.42239	543.78308	1080.07739	866.65820	540.83307	935.28333	1713.59570	589.36847	843.06818	1555.86511	601.90991	1001.22150	1547.74805	581.57593	917.74176	1401.18298	459.45813	935.55920	1477.25269	560.99060	807.12103	1100.98035	587.82831	1019.08185	1096.05664	613.21295	910.36206	1245.23938	582.81036	804.03442	970.27686	595.70673	1021.34003	976.57050	413.73276	865.19757	998.17023	426.70670	985.48016	999.82941	395.75797	936.02399	1259.25195	413.01581	931.67224	1133.34290	424.90250	931.40186	1075.38965	422.40680	926.30328	1029.66992	410.08334	927.51208	991.43140	386.00085	926.34650	887.00226	
598	2.985	551.18298	767.06189	1054.76355	512.48059	705.38483	1025.67505	468.56726	749.39349	1063.70129	356.20667	608.63678	1192.50073	419.48462	559.53448	1205.95862	540.48694	755.41803	1417.16064	431.88647	737.48688	1411.82922	484.73563	729.77893	1447.13940	585.86963	1053.14905	1053.68774	552.40015	1119.40283	1020.30280	510.91824	1079.89490	1069.48572	428.76578	1251.01282	1177.05139	501.98358	1289.34485	1184.41284	570.48096	1077.19800	1404.62573	520.31976	1117.04980	1432.28821	459.07758	1106.65857	1386.41760	690.44672	734.44745	57.70831	610.90454	784.40796	37.17473	583.81775	664.64899	44.35822	405.82877	758.77490	38.41580	492.21722	793.45349	109.12970	473.38101	698.13245	103.81101	524.72620	828.74115	470.99826	542.68225	727.96826	479.13257	521.26337	737.36768	877.81177	712.43256	1054.07422	58.80069	637.42535	1009.93848	53.63629	619.64886	1122.79651	47.98709	428.74658	1071.15869	36.52873	512.16382	1022.19354	127.74423	498.01953	1113.72607	103.53722	497.14206	999.76141	472.93011	529.75812	1104.16370	485.49872	544.04535	1079.63794	866.72333	539.53033	934.90710	1713.69470	588.97803	842.83698	1556.12988	601.63135	1000.94354	1548.10730	581.70612	917.46460	1401.57410	459.19965	935.21692	1477.23572	561.55603	806.77753	1101.20935	588.20227	1018.83508	1096.31006	613.69092	910.11060	1245.68103	583.45056	803.59119	970.48175	595.94427	1021.03735	976.63574	414.25592	864.59186	998.22064	427.04773	984.92255	999.84009	396.04709	935.64899	1259.04626	413.41736	931.17242	1133.23889	425.34949	930.75623	1075.33484	422.93149	925.74915	1029.67651	410.61386	926.86523	991.44421	386.53568	925.67578	886.99658	
599	2.990	551.75568	766.62012	1054.84009	513.13940	704.99231	1025.80151	469.33298	748.89880	1063.63147	357.16916	607.94568	1192.24097	420.28348	559.11920	1206.10632	540.52332	755.06744	1417.48889	432.01492	737.08850	1411.83276	484.70255	729.44971	1447.27454	586.14813	1052.93433	1053.70227	552.59314	1119.13611	1020.23602	511.22824	1079.60815	1069.52441	428.98471	1250.68506	1177.06384	502.22443	1289.00513	1184.42114	570.50183	1076.96130	1404.82629	520.76617	1117.02319	1431.44446	459.18555	1106.36792	1386.47290	690.45538	734.45001	57.77031	610.85400	784.41199	37.22216	583.80396	664.64917	44.39309	405.80917	758.76520	38.40662	492.13290	793.38904	109.11846	473.37112	698.04944	103.74647	524.15381	828.36932	471.10828	542.32678	727.65485	479.08374	521.99091	736.86670	877.87866	712.43878	1054.06445	58.69178	637.44043	1009.89069	53.56986	619.66193	1122.77515	47.95063	428.75235	1071.14001	36.55508	512.21234	1022.12421	127.73272	498.09662	1113.66064	103.55528	497.62302	999.48492	472.94348	530.01843	1103.73132	485.59579	544.29663	1079.21399	866.78491	538.20648	934.73755	1713.82227	588.52612	842.58575	1556.43872	601.26428	1000.74524	1548.57654	581.63000	917.14319	1401.71460	459.05325	934.91174	1477.17261	562.17389	806.31085	1101.47241	588.54291	1018.56366	1096.48694	614.25525	909.78375	1246.17896	584.04315	803.15222	970.65161	596.15344	1020.72491	976.69385	414.65402	864.15662	998.24554	427.40118	984.39148	999.89917	396.36124	935.18060	1258.88928	412.84061	931.26007	1133.31921	425.75137	930.22278	1075.37927	423.25598	925.34100	1029.68396	410.92996	926.46838	991.49329	387.13611	924.91730	886.97217	
